<?xml version="1.0" encoding="utf-8"?>
<!-- Generator: Adobe Illustrator 27.5.0, SVG Export Plug-In . SVG Version: 6.00 Build 0)  -->
<svg version="1.1" xmlns="http://www.w3.org/2000/svg" xmlns:xlink="http://www.w3.org/1999/xlink" x="0px" y="0px"
	 viewBox="0 0 500 500" style="enable-background:new 0 0 500 500;" xml:space="preserve">
<g id="BACKGROUND">
	<rect style="fill:#DDEAFA;" width="500" height="500"/>
</g>
<g id="OBJECTS">
	<g>
		<rect x="168.819" y="89.316" style="fill:#000644;" width="162.361" height="111.405"/>
		<rect x="176.977" y="97.474" style="fill:#76C3ED;" width="146.046" height="95.09"/>
		<g>
			<path style="fill:#DAEBFF;" d="M241.556,132.239c-1.365-1.366-1.365-3.579,0-4.945c1.366-1.365,3.579-1.365,4.945,0
				c1.365,1.365,1.365,3.579,0,4.945C245.136,133.605,242.922,133.605,241.556,132.239z"/>
			<path style="fill:#DAEBFF;" d="M229.845,159.228c-1.365-1.365-1.365-3.579,0-4.945c1.366-1.365,3.579-1.365,4.945,0
				c1.365,1.366,1.365,3.579,0,4.945C233.425,160.594,231.211,160.594,229.845,159.228z"/>
			<path style="fill:#DAEBFF;" d="M262.027,159.49c-1.365-1.366-1.365-3.579,0-4.945c1.366-1.365,3.579-1.365,4.945,0
				c1.365,1.366,1.365,3.579,0,4.945C265.606,160.856,263.392,160.856,262.027,159.49z"/>
			<path style="fill:#DAEBFF;" d="M245.164,151.713c-1.931-1.931-1.931-5.062,0-6.993c1.931-1.931,5.062-1.931,6.993,0
				c1.931,1.931,1.931,5.062,0,6.993C250.226,153.645,247.095,153.645,245.164,151.713z"/>
			<line style="fill:none;stroke:#DAEBFF;stroke-miterlimit:10;" x1="244.029" y1="129.767" x2="248.661" y2="148.217"/>
			<line style="fill:none;stroke:#DAEBFF;stroke-miterlimit:10;" x1="248.661" y1="148.217" x2="232.318" y2="157.018"/>
			<line style="fill:none;stroke:#DAEBFF;stroke-miterlimit:10;" x1="248.661" y1="148.217" x2="264.499" y2="157.018"/>
		</g>
		<g>
			<rect x="185.254" y="150.978" style="fill:#DAEBFF;" width="16.7" height="3.321"/>
			<rect x="204.088" y="150.978" style="fill:#DAEBFF;" width="3.387" height="3.321"/>
			<rect x="185.254" y="160.11" style="fill:#DAEBFF;" width="10.466" height="3.321"/>
		</g>
		<g>
			
				<polygon style="fill:none;stroke:#DAEBFF;stroke-width:0.25;stroke-linecap:round;stroke-linejoin:round;stroke-miterlimit:10;" points="
				243.021,170.245 233.554,170.245 228.821,178.443 233.554,186.642 243.021,186.642 247.754,178.443 			"/>
			
				<polygon style="fill:none;stroke:#DAEBFF;stroke-width:0.25;stroke-linecap:round;stroke-linejoin:round;stroke-miterlimit:10;" points="
				269.193,170.245 259.726,170.245 254.993,178.443 259.726,186.642 269.193,186.642 273.926,178.443 			"/>
			
				<line style="fill:none;stroke:#DAEBFF;stroke-width:0.25;stroke-linecap:round;stroke-linejoin:round;stroke-miterlimit:10;" x1="247.754" y1="178.443" x2="254.993" y2="178.443"/>
		</g>
		<rect x="185.254" y="113.353" style="fill:#9AD0F4;" width="129.492" height="1"/>
		<g>
			<g>
				<g>
					<rect x="223.423" y="105.287" style="fill:#9AD0F4;" width="1" height="79.462"/>
				</g>
				<g>
					<rect x="275.577" y="105.287" style="fill:#9AD0F4;" width="1" height="79.462"/>
				</g>
			</g>
		</g>
	</g>
	<g>
		<g>
			<rect x="49.922" y="65.801" style="fill:#EDF3FF;" width="90.965" height="260.871"/>
			<rect x="57.927" y="73.804" style="fill:#9AD0F4;" width="74.96" height="244.86"/>
		</g>
		<g>
			<g>
				<polygon style="fill:#DAEBFF;" points="132.055,92.037 61.311,92.037 58.439,82.76 129.183,82.76 				"/>
				<polygon style="fill:#DAEBFF;" points="132.055,104.76 61.311,104.76 58.439,95.484 129.183,95.484 				"/>
				<polygon style="fill:#DAEBFF;" points="132.055,117.484 61.311,117.484 58.439,108.207 129.183,108.207 				"/>
				<polygon style="fill:#DAEBFF;" points="132.055,130.207 61.311,130.207 58.439,120.93 129.183,120.93 				"/>
				<polygon style="fill:#DAEBFF;" points="132.055,142.93 61.311,142.93 58.439,133.654 129.183,133.654 				"/>
				<rect x="64.247" y="73.805" style="fill:#DAEBFF;" width="3" height="69.125"/>
				<rect x="123.247" y="73.805" style="fill:#DAEBFF;" width="3" height="69.125"/>
			</g>
		</g>
	</g>
	<g>
		<g>
			<rect x="359.114" y="65.801" style="fill:#EDF3FF;" width="90.965" height="260.871"/>
			<rect x="367.119" y="73.804" style="fill:#9AD0F4;" width="74.96" height="244.86"/>
		</g>
		<g>
			<g>
				<polygon style="fill:#DAEBFF;" points="441.247,92.037 370.503,92.037 367.631,82.76 438.375,82.76 				"/>
				<polygon style="fill:#DAEBFF;" points="441.247,104.76 370.503,104.76 367.631,95.484 438.375,95.484 				"/>
				<polygon style="fill:#DAEBFF;" points="441.247,117.484 370.503,117.484 367.631,108.207 438.375,108.207 				"/>
				<polygon style="fill:#DAEBFF;" points="441.247,130.207 370.503,130.207 367.631,120.93 438.375,120.93 				"/>
				<polygon style="fill:#DAEBFF;" points="441.247,142.93 370.503,142.93 367.631,133.654 438.375,133.654 				"/>
				<rect x="373.439" y="73.805" style="fill:#DAEBFF;" width="3" height="69.125"/>
				<rect x="432.439" y="73.805" style="fill:#DAEBFF;" width="3" height="69.125"/>
			</g>
		</g>
	</g>
	<g>
		
			<rect x="306.77" y="345.034" transform="matrix(-1 -1.224647e-16 1.224647e-16 -1 622.2616 771.026)" style="fill:#131C2B;" width="8.722" height="80.959"/>
		<g>
			<path style="fill:#666D96;" d="M307.207,271.08h43.374c4.559,0,8.491-3.204,9.412-7.669l10.037-48.831
				c1.23-5.963-3.324-11.552-9.412-11.552h-43.374c-4.56,0-8.491,3.204-9.412,7.669l-10.036,48.832
				C296.564,265.491,301.118,271.08,307.207,271.08z"/>
			<path style="fill:#575D81;" d="M297.536,271.08h43.374c4.56,0,8.491-3.204,9.412-7.669l10.037-48.831
				c1.23-5.963-3.324-11.552-9.412-11.552h-43.374c-4.559,0-8.491,3.204-9.412,7.669l-10.037,48.832
				C286.894,265.491,291.448,271.08,297.536,271.08z"/>
		</g>
		<g>
			<path style="fill:#575D81;" d="M263.634,327.747h92.316c2.546,0,4.611,2.064,4.611,4.611v8.061c0,2.547-2.064,4.611-4.611,4.611
				h-99.181c-3.484,0-6.15-3.102-5.626-6.546v0C252.08,332.309,257.389,327.747,263.634,327.747z"/>
		</g>
		<g>
			<path style="fill:#666D96;" d="M331.094,327.747h24.856c2.546,0,4.611,2.064,4.611,4.611v8.061c0,2.547-2.064,4.611-4.611,4.611
				h-31.721c-3.484,0-6.15-3.102-5.626-6.546v0C319.541,332.309,324.849,327.747,331.094,327.747z"/>
		</g>
		<path style="fill:#53587E;" d="M324.464,323.096c-0.324,1.583-0.691,3.13-1.085,4.658h11.685c0.394-1.528,0.753-3.075,1.077-4.658
			c0.28-1.292,0.525-2.62,0.753-3.948c0.586-3.475,1.015-7.023,1.278-10.608c0.105-1.31,0.184-2.62,0.236-3.948
			c0.079-1.765,0.114-3.53,0.114-5.313c0-1.765-0.035-3.53-0.114-5.295c-0.053-1.328-0.131-2.638-0.236-3.948
			c-0.263-3.584-0.691-7.151-1.278-10.608c-0.228-1.328-0.473-2.638-0.744-3.948c-0.324-1.565-0.691-3.13-1.085-4.658h-11.685
			c0.394,1.528,0.762,3.093,1.085,4.658c0.271,1.31,0.525,2.62,0.753,3.948c0.578,3.457,1.007,7.023,1.278,10.608
			c0.096,1.31,0.175,2.62,0.228,3.948c0.079,1.765,0.114,3.53,0.114,5.295c0,1.783-0.035,3.548-0.114,5.313
			c-0.052,1.328-0.131,2.638-0.228,3.948c-0.271,3.585-0.7,7.133-1.278,10.608C324.989,320.476,324.736,321.804,324.464,323.096z"/>
		<path style="fill:#1B2435;" d="M303.483,354.805h15.295c5.411,0,9.798-4.387,9.798-9.798l0,0h-34.892l0,0
			C293.685,350.418,298.072,354.805,303.483,354.805z"/>
		<circle style="fill:#28364F;" cx="348.283" cy="429.269" r="4.592"/>
		<circle style="fill:#1B2435;" cx="348.283" cy="429.269" r="2.145"/>
		<path style="fill:#B1C3EB;" d="M348.283,423.387c3.249,0,5.882,2.634,5.882,5.883h-11.765
			C342.401,426.021,345.034,423.387,348.283,423.387z"/>
		<circle style="fill:#28364F;" cx="273.978" cy="429.269" r="4.592"/>
		<circle style="fill:#1B2435;" cx="273.978" cy="429.269" r="2.145"/>
		<path style="fill:#B1C3EB;" d="M273.978,423.387c3.249,0,5.883,2.634,5.883,5.883h-11.765
			C268.096,426.021,270.73,423.387,273.978,423.387z"/>
		<circle style="fill:#28364F;" cx="311.021" cy="429.269" r="4.592"/>
		<circle style="fill:#1B2435;" cx="311.021" cy="429.269" r="2.145"/>
		<path style="fill:#B1C3EB;" d="M311.021,423.387c3.249,0,5.883,2.634,5.883,5.883h-11.765
			C305.139,426.021,307.773,423.387,311.021,423.387z"/>
		<path style="fill:#1B2435;" d="M264.593,425.992h93.076l0,0c0-2.981-2.417-5.397-5.397-5.397H269.99
			C267.009,420.595,264.593,423.012,264.593,425.992L264.593,425.992z"/>
		<path style="fill:#1B2435;" d="M306.84,410.865h8.582c1.201,0,2.174,0.974,2.174,2.174v12.953h-12.931V413.04
			C304.665,411.839,305.639,410.865,306.84,410.865z"/>
		<path style="fill:#222E45;" d="M310.063,420.595h2.136c2.981,0,5.397,2.417,5.397,5.397l0,0h-12.931l0,0
			C304.665,423.012,307.082,420.595,310.063,420.595z"/>
		<path style="fill:#B1C3EB;" d="M320.426,327.747h11.684l0,0c4.611-17.766,4.611-39.163,0-56.928l0,0h-11.684l0,0
			C325.037,288.584,325.037,309.982,320.426,327.747L320.426,327.747z"/>
	</g>
	<g>
		<path style="fill:#FFFFFF;" d="M221.957,428.46c0,0-19.082,0.809-19.081,4.155c0,1.435,31.451,1.746,36,1.584
			c4.549-0.162,5.46-6.974,0.95-10.906L221.957,428.46z"/>
		<path style="fill:#F47D5B;" d="M196.415,146.965c0,0,9.852-8.237,10.661-7.921c1.074,0.419,1.441,3.51-4.48,7.66L196.415,146.965z
			"/>
		<path style="fill:#ED9170;" d="M196.787,168.51l0.457-10.523c0,0-1.047-7.716-0.999-10.718c0.024-1.507,13.78-4.155,14.002-2.569
			c1.008,7.214-6.7,8.673-6.7,8.673l1.458,14.652C205.004,168.025,200.473,172.569,196.787,168.51z"/>
		<path style="fill:#000644;" d="M220.079,327.88h25.443c0,0,0.168-40.301-20.691-40.301c-7.843,0-14.323,0.294-17.79,7.554
			C202.75,304.115,220.079,327.88,220.079,327.88z"/>
		<path style="fill:#F47D5B;" d="M242.493,290.017c0,0-35.406-4.364-37.832,10.492c-1.601,9.804,59.058,105.958,59.058,105.958
			s7.861-8.04-25.854-88.031h23.47C261.336,318.436,270.793,291.333,242.493,290.017z"/>
		<path style="fill:#4C1E2B;" d="M265.508,151.776c0.447,10.416-12.297,23.087-10.519,29.189c1.947,6.682,7.502,6.54,9.636,7.939
			c-2.641,0.271-3.978,5.404-2.168,7.347c10.612,11.385,45.881,11.385,56.261,2.786c2.587-2.143,2.709-6.809,0.286-9.137
			c4.73-3.545,6.387-10.862,6.302-16.773c-0.124-8.599-7.877-37.459-18.547-47.367c-4.762-4.422-12.614-2.213-16.583,0.978
			c-4.791-2.784-13.256-6.028-20.369-0.1C261.658,133.431,265.122,142.791,265.508,151.776z"/>
		<path style="fill:#FFFFFF;" d="M193.505,163.596l13.901-2.779l9.404,44.357l58.812-15.729c0,0,7.569,3.314-7.089,25.555
			c0,0-45.545,9.908-58.195,8.254C201.851,222.145,193.505,163.596,193.505,163.596z"/>
		<path style="fill:#FFFFFF;" d="M285.033,189.446h-9.411c0,0-14.137,31.005-14.137,36.637c0,5.632,4.031,46.263,3.055,61.497
			h20.493V189.446z"/>
		<path style="fill:none;stroke:#6E72A1;stroke-width:0.5;stroke-miterlimit:10;" d="M285.033,189.446l-11.774,10.278l7.575,13.974
			l-9.482,5.821c0,0-4.003,72.627,8.308,80.8"/>
		<path style="fill:#FB9773;" d="M257.145,290.451c0,0-33.817-2.872-35.608,8.111c-1.301,7.977,17.294,122.369,17.294,122.369
			s10.941-13.06,2.941-93.051h40.086C281.858,327.88,286.306,293.814,257.145,290.451z"/>
		<path style="fill:#000644;" d="M224.831,287.579h97.366c0,0,5.614,16.061,1.869,30.561c-1.484,5.747-6.707,9.74-12.642,9.74
			h-69.652C241.772,327.88,240.415,292.024,224.831,287.579z"/>
		<path style="fill:none;stroke:#1B2E94;stroke-width:0.5;stroke-miterlimit:10;" d="M246.81,320.017c0,0,52.269,0,59.432,0
			c7.163,0,16-14.385,12.549-32.437"/>
		<g>
			<path style="fill:none;stroke:#45152D;stroke-width:0.75;stroke-miterlimit:10;" d="M330.35,300.08"/>
			<path style="fill:none;stroke:#45152D;stroke-width:0.75;stroke-miterlimit:10;" d="M341.036,297.283"/>
		</g>
		<g>
			<g>
				<g>
					<path style="fill:#FB9773;" d="M302.826,169.785l0.437,19.661c0,0-8.077,6.113-14.546,0v-19.661H302.826z"/>
					<polygon style="fill:#F47D5B;" points="288.717,169.785 288.717,187.102 295.834,176.208 					"/>
					<path style="fill:#FB9773;" d="M274.489,142.279l0.398,24.964c0.079,4.974,4.134,8.965,9.109,8.965h18.95l-0.629-33.93H274.489
						z"/>
					<g>
						<g>
							<g>
								<path style="fill:#FB9773;" d="M300.021,161.796c-0.015,2.76,2.199,4.885,4.945,4.746c2.746-0.14,4.984-2.491,4.999-5.251
									c0.015-2.761-2.199-4.885-4.945-4.746C302.274,156.684,300.036,159.035,300.021,161.796z"/>
							</g>
						</g>
					</g>
					<path style="fill:#4C1E2B;" d="M283.113,151.618c-0.003,0.751-3.142,1.337-4.999,1.324c-1.857-0.013-2.495-0.627-2.492-1.378
						c0.003-0.751,2.276-1.344,4.133-1.33C281.613,150.247,283.116,150.867,283.113,151.618z"/>
					<path style="fill:#2C1817;" d="M282.668,158.088c-0.006,1.064-0.421,1.925-0.928,1.922c-0.507-0.003-0.913-0.868-0.907-1.932
						c0.006-1.064,0.421-1.925,0.928-1.922C282.268,156.159,282.674,157.024,282.668,158.088z"/>
					<path style="fill:#4C1E2B;" d="M290.501,151.689c-0.003,0.751,3.131,1.383,4.988,1.396c1.858,0.013,2.499-0.591,2.503-1.342
						c0.003-0.751-2.265-1.376-4.122-1.39C292.013,150.34,290.504,150.938,290.501,151.689z"/>
					<path style="fill:#2C1817;" d="M290.872,158.146c-0.006,1.064,0.4,1.929,0.907,1.932c0.507,0.003,0.922-0.858,0.928-1.922
						c0.006-1.064-0.4-1.929-0.907-1.932C291.293,156.221,290.878,157.082,290.872,158.146z"/>
					
						<polyline style="fill:none;stroke:#F47D5B;stroke-width:0.5;stroke-linecap:round;stroke-linejoin:round;stroke-miterlimit:10;" points="
						286.842,156.047 285.356,165.588 288.192,165.588 					"/>
					<path style="fill:none;stroke:#F47D5B;stroke-width:0.5;stroke-miterlimit:10;" d="M303.735,163.596
						c-0.388-0.882-0.224-1.98,0.405-2.711c0.629-0.73,1.69-1.056,2.62-0.803"/>
					<path style="fill:#FFFFFF;" d="M283.113,169.508h8.676c0,0-0.954,3.852-4.338,3.852
						C284.067,173.36,283.113,169.508,283.113,169.508z"/>
				</g>
			</g>
			<path style="fill:#4C1E2B;" d="M273.015,147.166c2.893,1.722,6.372,2.282,9.732,2.07c3.36-0.213,6.632-1.156,9.81-2.27
				c2.188-0.767,4.346-1.618,6.469-2.549c-0.224,2.361-0.539,5.03-0.763,7.391c-0.176,1.859-0.292,3.932,0.89,5.378
				c1.133,1.386,3.221,1.73,4.911,1.14c1.69-0.59,3.013-1.952,3.965-3.468c3.624-5.762,2.109-13.954-2.829-18.639
				c-4.938-4.684-12.612-5.902-19.077-3.77c-6.464,2.132-11.688,7.271-14.772,13.339
				C271.529,145.432,272.838,147.523,273.015,147.166z"/>
		</g>
		<path style="fill:#A1DCFA;" d="M285.033,189.446c0,0-11.17,19.563-12.568,27.27c-1.398,7.706,4.191,14.733,4.191,14.733
			s0.27,37.41,0.547,56.131h38.499l-5.737-98.133H285.033z"/>
		<path style="opacity:0.2;fill:#6BB2DC;" d="M276.656,231.448c0,0,5.317-0.835,10.358,0c5.041,0.835,10.579-1.815,10.579-1.815
			s-4.709,4.41-10.819,3.745c-6.11-0.665-10.106-0.377-10.106-0.377L276.656,231.448z"/>
		<polygon style="fill:#A1DCFA;" points="285.356,182.237 285.033,189.446 303.263,189.446 303.263,182.237 		"/>
		
			<line style="fill:none;stroke:#6BB2DC;stroke-width:0.5;stroke-miterlimit:10;" x1="277.1" y1="281.944" x2="315.373" y2="281.944"/>
		
			<line style="fill:none;stroke:#6BB2DC;stroke-width:0.5;stroke-miterlimit:10;" x1="280.057" y1="272.461" x2="293.971" y2="248.207"/>
		
			<line style="fill:none;stroke:#6BB2DC;stroke-width:0.5;stroke-miterlimit:10;" x1="290.023" y1="272.851" x2="293.556" y2="261.261"/>
		<g>
			<path style="fill:#FFFFFF;" d="M303.263,189.446L303.263,189.446c-7.866,9.02-11.823,24.805-9.939,36.624
				c3.601,22.599,9.677,61.514,10.203,105.074l29.512-0.115l-16.463-141.584H303.263z"/>
			
				<line style="fill:none;stroke:#6E72A1;stroke-width:0.5;stroke-miterlimit:10;" x1="303.741" y1="326.402" x2="332.374" y2="326.402"/>
		</g>
		<path style="fill:none;stroke:#6E72A1;stroke-width:0.5;stroke-miterlimit:10;" d="M303.263,189.446l6.702,13.67l-9.944,13.571
			l6.739,4.869c0,0,7.529,69.95-4.506,78.525"/>
		
			<line style="fill:none;stroke:#6BB2DC;stroke-width:0.5;stroke-miterlimit:10;" x1="285.033" y1="189.446" x2="303.263" y2="189.446"/>
		
			<line style="fill:none;stroke:#6BB2DC;stroke-width:0.5;stroke-miterlimit:10;" x1="288.192" y1="182.237" x2="288.192" y2="189.446"/>
		
			<line style="fill:none;stroke:#6BB2DC;stroke-width:0.5;stroke-miterlimit:10;" x1="292.707" y1="182.237" x2="292.707" y2="189.446"/>
		
			<line style="fill:none;stroke:#6BB2DC;stroke-width:0.5;stroke-miterlimit:10;" x1="297.222" y1="182.237" x2="297.222" y2="189.446"/>
		<path style="fill:none;stroke:#1B2E94;stroke-width:0.5;stroke-miterlimit:10;" d="M237.724,287.579
			c0,0,9.539,20.222,9.539,40.301"/>
		<g>
			<path style="fill:#FDFCFA;" d="M204.689,168.339L204.689,168.339c-2.067-0.384-3.431-2.371-3.047-4.439l4.808-25.865l7.486,1.391
				l-4.808,25.865C208.743,167.359,206.756,168.723,204.689,168.339z"/>
			<path style="fill:#F66C7E;" d="M205.059,166.347L205.059,166.347c-1.117-0.208-1.854-1.281-1.646-2.398l2.006-10.79l4.045,0.752
				l-2.005,10.79C207.249,165.817,206.176,166.555,205.059,166.347z"/>
			
				<rect x="205.404" y="135.67" transform="matrix(0.9832 0.1827 -0.1827 0.9832 28.6176 -36.1489)" style="fill:#FDFCFA;" width="10.117" height="3.084"/>
		</g>
		<path style="fill:#ED9170;" d="M203.039,144.851c0,0,8.517-1.631,8.724-0.107c0.256,1.885-4.686,2.562-4.686,2.562
			s3.823,2.263,3.673,3.351c-0.221,1.609-6.588-0.595-6.588-0.595L203.039,144.851z"/>
		<polygon style="fill:#6BB3DB;" points="300.021,227.557 318.536,228.811 317.615,239.199 299.408,237.642 		"/>
		<polygon style="fill:#000644;" points="308.202,225.482 307.902,229.329 310.242,229.633 310.801,225.733 		"/>
		
			<line style="fill:none;stroke:#6E72A1;stroke-width:0.5;stroke-miterlimit:10;" x1="312.949" y1="300.08" x2="327.178" y2="310.297"/>
		<path style="fill:#FB9773;" d="M236.712,407.743c0.422,15.362-14.754,17.541-14.754,20.717c0,0,11.306,0.755,15.766-1.336
			c4.549-2.132,3.899-16.913,3.899-16.913L236.712,407.743z"/>
		<path style="fill:#FFFFFF;" d="M258.688,417.802c0,0-13.442,13.568-11.166,16.021c0.976,1.052,24.249-20.104,27.474-23.317
			c3.225-3.212-0.739-8.827-6.719-8.642L258.688,417.802z"/>
		<path style="fill:#F47D5B;" d="M255.35,393.044c9.164,13.424,1.178,22.429,3.337,24.758c0,0,8.803-7.134,10.652-11.7
			c1.886-4.657-8.17-14.574-8.17-14.574L255.35,393.044z"/>
		<polyline style="fill:none;stroke:#6E72A1;stroke-width:0.5;stroke-miterlimit:10;" points="212.741,210.372 216.81,205.174 
			218.562,210.372 		"/>
		<g>
			<path style="fill:#FDFCFA;" d="M234.891,270.213l-7.612-0.596c-2.407-0.188-3.575-3.036-1.994-4.86l3.606-4.16l7.424-8.565
				l6,9.617l2.914,4.671c1.278,2.048-0.319,4.679-2.726,4.491L234.891,270.213z"/>
			
				<rect x="234.016" y="240.897" transform="matrix(0.9969 0.0781 -0.0781 0.9969 20.404 -17.6853)" style="fill:#FDFCFA;" width="4.6" height="22.269"/>
			
				<rect x="233.514" y="239.479" transform="matrix(0.9969 0.0781 -0.0781 0.9969 19.5108 -17.7884)" style="fill:#FDFCFA;" width="7.396" height="2.215"/>
			<path style="fill:#F9C185;" d="M239.947,262.439l-0.641-1.027l-7.406-0.58l-0.793,0.915l-2.374,2.74
				c-1.041,1.201-0.272,3.076,1.313,3.201l5.013,0.393l5.013,0.393c1.585,0.124,2.637-1.608,1.795-2.957L239.947,262.439z"/>
		</g>
		<path style="fill:#FB9773;" d="M232.421,243.2c0.79-0.934,8.605-0.761,10.212-0.402s5.675,5.342,5.675,5.342
			c2.491,0.52,9.676,1.589,9.676,1.589l0.497,8.531c-6.487-2.313-13.153-3.947-19.873-4.873c-0.747-0.103-1.748-0.538-1.612-1.335
			c0.027-0.159,0.104-0.313,0.071-0.474c-0.076-0.374-0.595-0.366-0.84-0.648c-0.19-0.219-0.169-0.555-0.136-0.846
			c0.173-1.488,0.593-3.11,0.766-4.598C236.856,245.488,231.631,244.134,232.421,243.2z"/>
		<path style="fill:#FFFFFF;" d="M330.712,207.807c-2.739-15.715-7.001-18.362-14.137-18.362l7.623,65.561l-69.38-7.7v12.988
			c0,0,65.344,8.195,75.53,8.183C336.382,268.472,339.86,260.295,330.712,207.807z"/>
		<path style="fill:none;stroke:#6E72A1;stroke-width:0.5;stroke-miterlimit:10;" d="M254.819,247.307l69.38,7.7
			c0,0-3.061-26.329-5.19-44.635"/>
		<path style="fill:none;stroke:#000644;stroke-width:0.5;stroke-miterlimit:10;" d="M286.046,157.704
			c0,3.029-2.456,5.484-5.484,5.484c-3.029,0-5.485-2.456-5.485-5.484c0-3.029,2.456-5.485,5.485-5.485
			C283.59,152.219,286.046,154.675,286.046,157.704z"/>
		<path style="fill:none;stroke:#000644;stroke-width:0.5;stroke-miterlimit:10;" d="M298.439,157.704
			c0,3.029-2.456,5.484-5.484,5.484s-5.485-2.456-5.485-5.484c0-3.029,2.456-5.485,5.485-5.485S298.439,154.675,298.439,157.704z"/>
		
			<line style="fill:none;stroke:#000644;stroke-width:0.5;stroke-miterlimit:10;" x1="286.046" y1="157.704" x2="287.47" y2="157.704"/>
	</g>
	<g>
		
			<rect x="56.954" y="268.826" transform="matrix(-1 -1.224647e-16 1.224647e-16 -1 484.1132 544.5753)" style="fill:#B1C3EB;" width="370.206" height="6.924"/>
		
			<rect x="318.236" y="268.826" transform="matrix(-1 -1.224647e-16 1.224647e-16 -1 756.5731 544.5753)" style="fill:#FFFFFF;" width="120.101" height="6.924"/>
		<polygon style="fill:#FFFFFF;" points="439.457,433.861 443.046,433.861 381.876,275.75 378.287,275.75 		"/>
		<polygon style="fill:#FFFFFF;" points="317.116,433.861 313.527,433.861 374.697,275.75 378.287,275.75 		"/>
		<polygon style="fill:#FFFFFF;" points="182.884,433.861 186.473,433.861 125.303,275.75 121.713,275.75 		"/>
		<polygon style="fill:#FFFFFF;" points="60.543,433.861 56.954,433.861 118.124,275.75 121.713,275.75 		"/>
		<line style="fill:none;stroke:#FFFFFF;stroke-miterlimit:10;" x1="427.159" y1="401.314" x2="329.414" y2="401.314"/>
		<line style="fill:none;stroke:#FFFFFF;stroke-miterlimit:10;" x1="170.586" y1="401.314" x2="72.841" y2="401.314"/>
	</g>
	<g>
		<g>
			<path style="fill:#8D92B8;" d="M187.561,265.817h-61.033l-9.937-33.499c-0.485-1.634,0.447-2.958,2.08-2.958h55.117
				c1.634,0,3.351,1.324,3.835,2.958L187.561,265.817z"/>
			<path style="fill:#FFFFFF;" d="M185.471,265.817h-58.943l-9.937-33.499c-0.485-1.634,0.447-2.958,2.08-2.958h53.027
				c1.634,0,3.351,1.324,3.835,2.958L185.471,265.817z"/>
		</g>
		<path style="fill:#52557E;" d="M150.739,268.826h61.033c0.834,0,1.51-0.676,1.51-1.509l0,0c0-0.834-0.676-1.51-1.51-1.51h-61.033
			c-0.834,0-1.51,0.676-1.51,1.51l0,0C149.229,268.15,149.905,268.826,150.739,268.826z"/>
		<path style="fill:#8D92B8;" d="M126.529,268.826h61.033c0.834,0,1.509-0.676,1.509-1.509l0,0c0-0.834-0.676-1.51-1.509-1.51
			h-61.033c-0.834,0-1.509,0.676-1.509,1.51l0,0C125.019,268.15,125.695,268.826,126.529,268.826z"/>
		<path style="fill:#8D92B8;" d="M145.211,247.589c0.594,2.246,2.897,4.067,5.143,4.067c2.246,0,3.586-1.821,2.991-4.067
			c-0.594-2.246-2.897-4.067-5.143-4.067C145.955,243.521,144.616,245.342,145.211,247.589z"/>
		<path style="fill:#000644;" d="M206.262,267.936h2.642c0.305,0,0.552-0.247,0.552-0.552l0,0c0-0.305-0.247-0.551-0.552-0.551
			h-2.642c-0.305,0-0.552,0.247-0.552,0.551l0,0C205.71,267.689,205.957,267.936,206.262,267.936z"/>
		<path style="fill:#000644;" d="M203.736,267.384c0,0.305,0.247,0.552,0.551,0.552c0.305,0,0.552-0.247,0.552-0.552
			s-0.247-0.551-0.552-0.551C203.983,266.833,203.736,267.08,203.736,267.384z"/>
		<path style="fill:#000644;" d="M201.864,267.384c0,0.305,0.247,0.552,0.552,0.552c0.305,0,0.551-0.247,0.551-0.552
			s-0.247-0.551-0.551-0.551C202.111,266.833,201.864,267.08,201.864,267.384z"/>
	</g>
	<g>
		<g>
			<circle style="fill:#FFFFFF;" cx="384.257" cy="242.51" r="11.319"/>
			<rect x="381.105" y="225.289" style="fill:#FFFFFF;" width="6.304" height="11.804"/>
			<rect x="379.654" y="223.471" style="fill:#FFFFFF;" width="9.206" height="2.231"/>
			<path style="fill:#80C7A7;" d="M376.253,242.51c0,4.421,3.584,8.004,8.004,8.004c4.421,0,8.004-3.584,8.004-8.004H376.253z"/>
		</g>
		<g>
			<rect x="368.926" y="253.202" style="fill:#000644;" width="30.663" height="3.439"/>
			<polygon style="fill:#000644;" points="372.293,268.826 368.926,268.826 372.544,256.641 375.911,256.641 			"/>
			<polygon style="fill:#000644;" points="396.222,268.826 399.589,268.826 395.971,256.641 392.604,256.641 			"/>
		</g>
	</g>
	<g>
		<rect x="297.122" y="231.191" style="fill:#000644;" width="3.388" height="37.635"/>
		<rect x="355.484" y="231.191" style="fill:#000644;" width="3.388" height="37.635"/>
		<path style="fill:none;stroke:#000644;stroke-miterlimit:10;" d="M300.51,237.093h7.407c3.452,0,6.251,2.799,6.251,6.251v15.541
			c0,3.829,3.104,6.933,6.933,6.933l0,0c3.829,0,6.933-3.104,6.933-6.933v-16.358c0-3.001,2.433-5.434,5.434-5.434l0,0
			c3.001,0,5.434,2.433,5.434,5.434v18.336c0,2.736,2.218,4.955,4.955,4.955l0,0c2.736,0,4.955-2.218,4.955-4.955v-10.668
			c0-3.686,2.988-6.673,6.673-6.673l0,0"/>
	</g>
	<g>
		<path style="fill:#FDFCFA;" d="M404.04,242.228L404.04,242.228c-3.071,0-5.56-2.489-5.56-5.56v-38.425H409.6v38.425
			C409.6,239.739,407.111,242.228,404.04,242.228z"/>
		<path style="fill:#F9C185;" d="M404.04,239.269L404.04,239.269c-1.659,0-3.004-1.345-3.004-3.004v-16.029h6.009v16.029
			C407.044,237.924,405.699,239.269,404.04,239.269z"/>
		<g>
			<g>
				<rect x="395.431" y="210.268" style="fill:#000644;" width="23.856" height="2.635"/>
				<rect x="417.97" y="198.243" style="fill:#000644;" width="2.635" height="70.407"/>
				<rect x="407.526" y="265.986" style="fill:#000644;" width="23.522" height="2.664"/>
				<rect x="394.583" y="209.171" style="fill:#000644;" width="18.913" height="4.829"/>
			</g>
		</g>
	</g>
	<g>
		<path style="fill:#FDFCFA;" d="M85.208,264.974L85.208,264.974c-1.535,0-2.78-1.245-2.78-2.78v-19.212h5.56v19.212
			C87.988,263.729,86.744,264.974,85.208,264.974z"/>
		<path style="fill:#F9C185;" d="M85.208,263.494L85.208,263.494c-0.83,0-1.502-0.673-1.502-1.502v-6.015h3.004v6.015
			C86.711,262.822,86.038,263.494,85.208,263.494z"/>
		<path style="fill:#FDFCFA;" d="M94.586,264.974L94.586,264.974c-1.535,0-2.78-1.245-2.78-2.78v-19.212h5.56v19.212
			C97.367,263.729,96.122,264.974,94.586,264.974z"/>
		<path style="fill:#F66C7E;" d="M94.586,263.494L94.586,263.494c-0.83,0-1.502-0.673-1.502-1.502v-6.015h3.004v6.015
			C96.089,262.822,95.416,263.494,94.586,263.494z"/>
		<path style="fill:#FDFCFA;" d="M103.964,264.974L103.964,264.974c-1.535,0-2.78-1.245-2.78-2.78v-19.212h5.56v19.212
			C106.745,263.729,105.5,264.974,103.964,264.974z"/>
		<path style="fill:#80C7A7;" d="M103.964,263.494L103.964,263.494c-0.83,0-1.502-0.673-1.502-1.502v-6.015h3.004v6.015
			C105.467,262.822,104.794,263.494,103.964,263.494z"/>
		<rect x="74.423" y="247.749" style="fill:#000644;" width="2.769" height="21.175"/>
		
			<rect x="93.202" y="232.712" transform="matrix(-1.836970e-16 1 -1 -1.836970e-16 347.4616 158.2888)" style="fill:#000644;" width="2.769" height="40.326"/>
		<rect x="111.98" y="247.749" style="fill:#000644;" width="2.769" height="21.175"/>
	</g>
	<line style="fill:none;stroke:#B1C3EB;stroke-width:0.25;stroke-miterlimit:10;" x1="0" y1="434.037" x2="500" y2="434.037"/>
</g>
</svg>
