<svg width="55" height="55" viewBox="0 0 55 55" fill="none" xmlns="http://www.w3.org/2000/svg">
<g clip-path="url(#clip0_3_9)">
<rect width="55" height="55" rx="27.5" fill="#DD4470"/>
<path d="M10.416 27.421C10.416 23.999 11.0257 21.0097 12.245 18.453C13.5037 15.8963 15.2147 13.9297 17.378 12.553C19.5413 11.1763 21.9407 10.488 24.576 10.488C26.7 10.488 28.588 10.9403 30.24 11.845C31.9313 12.7103 33.249 13.91 34.193 15.444V0.339999H45.816V44H34.193V39.398C33.2883 40.932 32.01 42.1513 30.358 43.056C28.706 43.9607 26.759 44.413 24.517 44.413C21.8817 44.413 19.4823 43.7247 17.319 42.348C15.195 40.9713 13.5037 39.0047 12.245 36.448C11.0257 33.852 10.416 30.843 10.416 27.421ZM34.252 27.421C34.252 25.297 33.662 23.6253 32.482 22.406C31.3413 21.1867 29.9253 20.577 28.234 20.577C26.5033 20.577 25.0677 21.1867 23.927 22.406C22.7863 23.586 22.216 25.2577 22.216 27.421C22.216 29.545 22.7863 31.2363 23.927 32.495C25.0677 33.7143 26.5033 34.324 28.234 34.324C29.9253 34.324 31.3413 33.7143 32.482 32.495C33.662 31.2757 34.252 29.5843 34.252 27.421Z" fill="#FCE4BF"/>
</g>
<defs>
<clipPath id="clip0_3_9">
<rect width="55" height="55" rx="27.5" fill="white"/>
</clipPath>
</defs>
</svg>
